<?xml version="1.0" encoding="UTF-8" standalone="no"?>
<!-- Created with Inkscape (http://www.inkscape.org/) -->

<svg
   xmlns:dc="http://purl.org/dc/elements/1.1/"
   xmlns:cc="http://creativecommons.org/ns#"
   xmlns:rdf="http://www.w3.org/1999/02/22-rdf-syntax-ns#"
   xmlns:svg="http://www.w3.org/2000/svg"
   xmlns="http://www.w3.org/2000/svg"
   xmlns:sodipodi="http://sodipodi.sourceforge.net/DTD/sodipodi-0.dtd"
   xmlns:inkscape="http://www.inkscape.org/namespaces/inkscape"
   width="800"
   height="450"
   viewBox="0 0 800.00001 450.00001"
   id="svg2"
   version="1.1"
   inkscape:version="0.91 r13725"
   sodipodi:docname="background.svg">
  <defs
     id="defs4" />
  <sodipodi:namedview
     id="base"
     pagecolor="#ffffff"
     bordercolor="#666666"
     borderopacity="1.0"
     inkscape:pageopacity="0.0"
     inkscape:pageshadow="2"
     inkscape:zoom="0.51125"
     inkscape:cx="451.67907"
     inkscape:cy="290.73484"
     inkscape:document-units="px"
     inkscape:current-layer="layer1"
     showgrid="false"
     units="px"
     inkscape:window-width="1366"
     inkscape:window-height="744"
     inkscape:window-x="0"
     inkscape:window-y="0"
     inkscape:window-maximized="1" />
  <metadata
     id="metadata7">
    <rdf:RDF>
      <cc:Work
         rdf:about="">
        <dc:format>image/svg+xml</dc:format>
        <dc:type
           rdf:resource="http://purl.org/dc/dcmitype/StillImage" />
        <dc:title></dc:title>
      </cc:Work>
    </rdf:RDF>
  </metadata>
  <g
     inkscape:label="Livello 1"
     inkscape:groupmode="layer"
     id="layer1"
     transform="translate(0,-602.36216)">
    <path
       transform="matrix(0.40838365,-0.91281038,0.91281038,0.40838365,0,0)"
       style="opacity:1;fill:none;fill-opacity:1;stroke:#ffcc00;stroke-width:35.05973053;stroke-linecap:round;stroke-linejoin:round;stroke-miterlimit:4;stroke-dasharray:none;stroke-dashoffset:0;stroke-opacity:1"
       d="m -743.27472,937.16001 a 200.58624,200.58624 0 0 1 187.72052,19.1573 200.58624,200.58624 0 0 1 88.75482,166.51899"
       id="path4152" />
    <path
       transform="matrix(0.40838365,-0.91281038,0.91281038,0.40838365,0,0)"
       style="opacity:1;fill:none;fill-opacity:1;stroke:#ff6600;stroke-width:32.76090622;stroke-linecap:round;stroke-linejoin:round;stroke-miterlimit:4;stroke-dasharray:none;stroke-dashoffset:0;stroke-opacity:1"
       d="m -755.25694,958.44207 a 187.43405,187.43405 0 0 1 184.46699,4.93385 187.43405,187.43405 0 0 1 90.83838,160.62628"
       id="path4154" />
    <path
       transform="matrix(0.40838365,-0.91281038,0.91281038,0.40838365,0,0)"
       style="opacity:1;fill:none;fill-opacity:1;stroke:#008000;stroke-width:29.03523064;stroke-linecap:round;stroke-linejoin:round;stroke-miterlimit:4;stroke-dasharray:none;stroke-dashoffset:0;stroke-opacity:1"
       d="m -735.0055,974.15865 a 166.11844,166.11844 0 0 1 158.06994,12.39838 166.11844,166.11844 0 0 1 75.66838,139.33457"
       id="path4156" />
    <path
       transform="matrix(0.40838365,-0.91281038,0.91281038,0.40838365,0,0)"
       style="opacity:1;fill:none;fill-opacity:1;stroke:#cc00ff;stroke-width:25.86444092;stroke-linecap:round;stroke-linejoin:round;stroke-miterlimit:4;stroke-dasharray:none;stroke-dashoffset:0;stroke-opacity:1"
       d="m -721.47815,989.76304 a 147.97749,147.97749 0 0 1 137.43778,15.46256 147.97749,147.97749 0 0 1 64.63224,122.2739"
       id="path4158" />
    <path
       style="opacity:1;fill:#ccff00;fill-opacity:1;stroke:none;stroke-width:40;stroke-linecap:round;stroke-linejoin:round;stroke-miterlimit:4;stroke-dasharray:none;stroke-dashoffset:0;stroke-opacity:1"
       d="m 394.40446,651.90002 81.14732,0 0,51.6392 -81.14732,0 27.0491,-25.8196 z"
       id="rect4138"
       inkscape:connector-curvature="0"
       sodipodi:nodetypes="cccccc" />
    <path
       sodipodi:nodetypes="cccccc"
       inkscape:connector-curvature="0"
       id="path4141"
       d="m 768.91162,651.90002 -81.14732,0 0,51.6392 81.14732,0 -27.0491,-25.8196 z"
       style="opacity:1;fill:#ccff00;fill-opacity:1;stroke:none;stroke-width:40;stroke-linecap:round;stroke-linejoin:round;stroke-miterlimit:4;stroke-dasharray:none;stroke-dashoffset:0;stroke-opacity:1" />
    <path
       style="opacity:1;fill:#aad400;fill-opacity:1;stroke:none;stroke-width:40;stroke-linecap:round;stroke-linejoin:round;stroke-miterlimit:4;stroke-dasharray:none;stroke-dashoffset:0;stroke-opacity:1"
       d="m 443.58465,622.39192 275.40908,0 0,68.85226 -275.40908,0 z"
       id="rect4136"
       inkscape:connector-curvature="0" />
    <path
       inkscape:connector-curvature="0"
       id="path4195"
       style="font-style:normal;font-variant:normal;font-weight:500;font-stretch:normal;font-size:medium;line-height:125%;font-family:Ubuntu;-inkscape-font-specification:'Ubuntu Medium';letter-spacing:0px;word-spacing:0px;fill:#445500;fill-opacity:1;stroke:none;stroke-width:1px;stroke-linecap:butt;stroke-linejoin:miter;stroke-opacity:1"
       d="m 470.70121,639.66798 q 0.99183,1.71316 2.20907,4.19274 1.21725,2.47957 2.47958,5.22965 1.26233,2.70499 2.47958,5.54523 1.26233,2.79516 2.29924,5.18457 1.03691,-2.38941 2.25416,-5.18457 1.21725,-2.84024 2.47958,-5.54523 1.26233,-2.75008 2.47957,-5.22965 1.21725,-2.47958 2.20908,-4.19274 l 5.13949,0 q 0.40575,3.42632 0.76641,7.30348 0.36067,3.83207 0.63117,7.88956 0.31558,4.01241 0.541,8.11498 0.2705,4.05749 0.45083,7.93464 l -5.59032,0 q -0.18033,-5.45507 -0.45083,-11.22572 -0.22542,-5.77065 -0.72133,-11.18063 -0.49592,1.03691 -1.17217,2.47957 -0.67625,1.44267 -1.44266,3.15583 -0.76641,1.66808 -1.57791,3.47141 -0.76642,1.80332 -1.53283,3.51649 -0.72133,1.66807 -1.3525,3.15582 -0.63116,1.44266 -1.082,2.47958 l -4.23782,0 q -0.45083,-1.03692 -1.08199,-2.52466 -0.63117,-1.48775 -1.39758,-3.15583 -0.72134,-1.71316 -1.53283,-3.51649 -0.76642,-1.80333 -1.53283,-3.47141 -0.76642,-1.66807 -1.44267,-3.11074 -0.67624,-1.48774 -1.17216,-2.47957 -0.49591,5.40998 -0.76641,11.18063 -0.22542,5.77065 -0.40575,11.22572 l -5.59032,0 q 0.18033,-3.87715 0.40575,-8.02481 0.2705,-4.14765 0.541,-8.20514 0.31558,-4.10258 0.67624,-7.93465 0.36067,-3.83207 0.76642,-7.07806 l 5.27474,0 z" />
    <path
       inkscape:connector-curvature="0"
       id="path4197"
       style="font-style:normal;font-variant:normal;font-weight:500;font-stretch:normal;font-size:medium;line-height:125%;font-family:Ubuntu;-inkscape-font-specification:'Ubuntu Medium';letter-spacing:0px;word-spacing:0px;fill:#445500;fill-opacity:1;stroke:none;stroke-width:1px;stroke-linecap:butt;stroke-linejoin:miter;stroke-opacity:1"
       d="m 502.2038,659.23409 q 0,-3.11074 0.90167,-5.45507 0.94675,-2.34432 2.47958,-3.87715 1.53282,-1.57792 3.51649,-2.34433 1.98366,-0.8115 4.05749,-0.8115 4.86898,0 7.57398,3.02058 2.75007,3.02057 2.75007,9.01664 0,0.45083 -0.0451,1.03691 0,0.541 -0.0451,0.99183 l -15.5537,0 q 0.22541,2.84025 1.98366,4.41816 1.80333,1.53283 5.18457,1.53283 1.98366,0 3.60665,-0.36067 1.66808,-0.36066 2.61483,-0.76641 l 0.72133,4.46324 q -0.45083,0.22541 -1.26233,0.49591 -0.76641,0.22542 -1.80333,0.40575 -0.99183,0.22542 -2.16399,0.36067 -1.17216,0.13525 -2.38941,0.13525 -3.11074,0 -5.40999,-0.90167 -2.29924,-0.94675 -3.78699,-2.56974 -1.48774,-1.66808 -2.20907,-3.87716 -0.72134,-2.25416 -0.72134,-4.91407 z m 15.82421,-2.43449 q 0,-1.12708 -0.31558,-2.11891 -0.31558,-1.03692 -0.94675,-1.75825 -0.58608,-0.76641 -1.48774,-1.17216 -0.85658,-0.45083 -2.07383,-0.45083 -1.26233,0 -2.20908,0.49591 -0.94675,0.45083 -1.62299,1.21725 -0.63117,0.76641 -0.99184,1.75824 -0.36066,0.99183 -0.49591,2.02875 l 10.14372,0 z" />
    <path
       inkscape:connector-curvature="0"
       id="path4199"
       style="font-style:normal;font-variant:normal;font-weight:500;font-stretch:normal;font-size:medium;line-height:125%;font-family:Ubuntu;-inkscape-font-specification:'Ubuntu Medium';letter-spacing:0px;word-spacing:0px;fill:#445500;fill-opacity:1;stroke:none;stroke-width:1px;stroke-linecap:butt;stroke-linejoin:miter;stroke-opacity:1"
       d="m 528.95224,641.11064 5.45506,-0.90167 0,7.12315 8.38548,0 0,4.55341 -8.38548,0 0,9.60272 q 0,2.84024 0.90167,4.05749 0.90166,1.21725 3.06566,1.21725 1.48774,0 2.61482,-0.31558 1.17217,-0.31559 1.84842,-0.58609 l 0.90166,4.32799 q -0.94675,0.40575 -2.47958,0.8115 -1.53283,0.45083 -3.60665,0.45083 -2.52466,0 -4.23783,-0.67625 -1.66808,-0.67624 -2.65991,-1.93857 -0.99183,-1.30742 -1.39758,-3.11075 -0.40574,-1.84841 -0.40574,-4.19273 l 0,-20.4227 z" />
    <path
       inkscape:connector-curvature="0"
       id="path4201"
       style="font-style:normal;font-variant:normal;font-weight:500;font-stretch:normal;font-size:medium;line-height:125%;font-family:Ubuntu;-inkscape-font-specification:'Ubuntu Medium';letter-spacing:0px;word-spacing:0px;fill:#445500;fill-opacity:1;stroke:none;stroke-width:1px;stroke-linecap:butt;stroke-linejoin:miter;stroke-opacity:1"
       d="m 546.31844,659.23409 q 0,-3.11074 0.90166,-5.45507 0.94675,-2.34432 2.47958,-3.87715 1.53283,-1.57792 3.51649,-2.34433 1.98366,-0.8115 4.05749,-0.8115 4.86898,0 7.57398,3.02058 2.75007,3.02057 2.75007,9.01664 0,0.45083 -0.0451,1.03691 0,0.541 -0.0451,0.99183 l -15.55371,0 q 0.22541,2.84025 1.98366,4.41816 1.80333,1.53283 5.18457,1.53283 1.98366,0 3.60666,-0.36067 1.66807,-0.36066 2.61482,-0.76641 l 0.72133,4.46324 q -0.45083,0.22541 -1.26233,0.49591 -0.76641,0.22542 -1.80332,0.40575 -0.99184,0.22542 -2.164,0.36067 -1.17216,0.13525 -2.38941,0.13525 -3.11074,0 -5.40999,-0.90167 -2.29924,-0.94675 -3.78699,-2.56974 -1.48774,-1.66808 -2.20907,-3.87716 -0.72133,-2.25416 -0.72133,-4.91407 z m 15.8242,-2.43449 q 0,-1.12708 -0.31558,-2.11891 -0.31558,-1.03692 -0.94675,-1.75825 -0.58608,-0.76641 -1.48774,-1.17216 -0.85658,-0.45083 -2.07383,-0.45083 -1.26233,0 -2.20908,0.49591 -0.94674,0.45083 -1.62299,1.21725 -0.63117,0.76641 -0.99183,1.75824 -0.36067,0.99183 -0.49592,2.02875 l 10.14372,0 z" />
    <path
       inkscape:connector-curvature="0"
       id="path4203"
       style="font-style:normal;font-variant:normal;font-weight:500;font-stretch:normal;font-size:medium;line-height:125%;font-family:Ubuntu;-inkscape-font-specification:'Ubuntu Medium';letter-spacing:0px;word-spacing:0px;fill:#445500;fill-opacity:1;stroke:none;stroke-width:1px;stroke-linecap:butt;stroke-linejoin:miter;stroke-opacity:1"
       d="m 594.66173,659.09884 q 0,2.79516 -0.8115,5.0944 -0.8115,2.29925 -2.29924,3.92224 -1.48775,1.623 -3.60666,2.52466 -2.07383,0.90167 -4.59849,0.90167 -2.52466,0 -4.59849,-0.90167 -2.07383,-0.90166 -3.56157,-2.52466 -1.48775,-1.62299 -2.34433,-3.92224 -0.8115,-2.29924 -0.8115,-5.0944 0,-2.79516 0.8115,-5.04932 0.85658,-2.29924 2.34433,-3.92224 1.53283,-1.62299 3.60666,-2.47957 2.07382,-0.90167 4.5534,-0.90167 2.47958,0 4.5534,0.90167 2.11892,0.85658 3.60666,2.47957 1.48775,1.623 2.29925,3.92224 0.85658,2.25416 0.85658,5.04932 z m -5.59032,0 q 0,-3.51649 -1.53283,-5.54523 -1.48775,-2.07383 -4.19274,-2.07383 -2.70499,0 -4.23782,2.07383 -1.48775,2.02874 -1.48775,5.54523 0,3.56158 1.48775,5.6354 1.53283,2.07383 4.23782,2.07383 2.70499,0 4.19274,-2.07383 1.53283,-2.07382 1.53283,-5.6354 z" />
    <path
       inkscape:connector-curvature="0"
       id="path4205"
       style="font-style:normal;font-variant:normal;font-weight:500;font-stretch:normal;font-size:medium;line-height:125%;font-family:Ubuntu;-inkscape-font-specification:'Ubuntu Medium';letter-spacing:0px;word-spacing:0px;fill:#445500;fill-opacity:1;stroke:none;stroke-width:1px;stroke-linecap:butt;stroke-linejoin:miter;stroke-opacity:1"
       d="m 632.08431,659.09884 q 0,2.79516 -0.8115,5.0944 -0.81149,2.29925 -2.29924,3.92224 -1.48775,1.623 -3.60666,2.52466 -2.07383,0.90167 -4.59849,0.90167 -2.52466,0 -4.59848,-0.90167 -2.07383,-0.90166 -3.56158,-2.52466 -1.48774,-1.62299 -2.34432,-3.92224 -0.8115,-2.29924 -0.8115,-5.0944 0,-2.79516 0.8115,-5.04932 0.85658,-2.29924 2.34432,-3.92224 1.53283,-1.62299 3.60666,-2.47957 2.07383,-0.90167 4.5534,-0.90167 2.47958,0 4.55341,0.90167 2.11891,0.85658 3.60666,2.47957 1.48774,1.623 2.29924,3.92224 0.85658,2.25416 0.85658,5.04932 z m -5.59032,0 q 0,-3.51649 -1.53283,-5.54523 -1.48774,-2.07383 -4.19274,-2.07383 -2.70499,0 -4.23782,2.07383 -1.48774,2.02874 -1.48774,5.54523 0,3.56158 1.48774,5.6354 1.53283,2.07383 4.23782,2.07383 2.705,0 4.19274,-2.07383 1.53283,-2.07382 1.53283,-5.6354 z" />
    <path
       inkscape:connector-curvature="0"
       id="path4207"
       style="font-style:normal;font-variant:normal;font-weight:500;font-stretch:normal;font-size:medium;line-height:125%;font-family:Ubuntu;-inkscape-font-specification:'Ubuntu Medium';letter-spacing:0px;word-spacing:0px;fill:#445500;fill-opacity:1;stroke:none;stroke-width:1px;stroke-linecap:butt;stroke-linejoin:miter;stroke-opacity:1"
       d="m 641.98713,658.51276 q 0,3.47141 1.48775,5.0944 1.53283,1.57792 3.92224,1.57792 1.30741,0 2.43449,-0.36067 1.17216,-0.36067 1.8935,-0.85658 l 0,-12.21755 q -0.58609,-0.13525 -1.44267,-0.22542 -0.85658,-0.13525 -2.16399,-0.13525 -2.97549,0 -4.55341,1.98366 -1.57791,1.93858 -1.57791,5.13949 z m 15.19304,10.00847 q 0,5.6354 -2.88532,8.25023 -2.84024,2.61483 -8.74614,2.61483 -2.164,0 -4.23783,-0.36067 -2.02874,-0.36066 -3.69682,-0.94675 l 0.99183,-4.64357 q 1.39758,0.58609 3.15583,0.94675 1.80332,0.36067 3.87715,0.36067 3.29108,0 4.68866,-1.3525 1.39758,-1.3525 1.39758,-4.01241 l 0,-0.90166 q -0.8115,0.40575 -2.164,0.8115 -1.30741,0.40575 -3.02057,0.40575 -2.25416,0 -4.14766,-0.72133 -1.84841,-0.72134 -3.20091,-2.11892 -1.30741,-1.39758 -2.07383,-3.4714 -0.72133,-2.11891 -0.72133,-4.86899 0,-2.56974 0.76642,-4.73374 0.8115,-2.16399 2.29924,-3.69682 1.53283,-1.53283 3.69682,-2.38941 2.164,-0.85658 4.91408,-0.85658 2.6599,0 5.04932,0.40575 2.38941,0.40575 4.05748,0.85658 l 0,20.42269 z" />
    <path
       inkscape:connector-curvature="0"
       id="path4209"
       style="font-style:normal;font-variant:normal;font-weight:500;font-stretch:normal;font-size:medium;line-height:125%;font-family:Ubuntu;-inkscape-font-specification:'Ubuntu Medium';letter-spacing:0px;word-spacing:0px;fill:#445500;fill-opacity:1;stroke:none;stroke-width:1px;stroke-linecap:butt;stroke-linejoin:miter;stroke-opacity:1"
       d="m 668.40307,658.51276 q 0,3.47141 1.48775,5.0944 1.53283,1.57792 3.92224,1.57792 1.30741,0 2.43449,-0.36067 1.17216,-0.36067 1.89349,-0.85658 l 0,-12.21755 q -0.58608,-0.13525 -1.44266,-0.22542 -0.85658,-0.13525 -2.16399,-0.13525 -2.97549,0 -4.55341,1.98366 -1.57791,1.93858 -1.57791,5.13949 z m 15.19304,10.00847 q 0,5.6354 -2.88532,8.25023 -2.84024,2.61483 -8.74615,2.61483 -2.16399,0 -4.23782,-0.36067 -2.02874,-0.36066 -3.69682,-0.94675 l 0.99183,-4.64357 q 1.39758,0.58609 3.15582,0.94675 1.80333,0.36067 3.87716,0.36067 3.29108,0 4.68866,-1.3525 1.39757,-1.3525 1.39757,-4.01241 l 0,-0.90166 q -0.81149,0.40575 -2.16399,0.8115 -1.30741,0.40575 -3.02057,0.40575 -2.25417,0 -4.14766,-0.72133 -1.84841,-0.72134 -3.20091,-2.11892 -1.30741,-1.39758 -2.07383,-3.4714 -0.72133,-2.11891 -0.72133,-4.86899 0,-2.56974 0.76642,-4.73374 0.81149,-2.16399 2.29924,-3.69682 1.53283,-1.53283 3.69682,-2.38941 2.164,-0.85658 4.91407,-0.85658 2.65991,0 5.04932,0.40575 2.38941,0.40575 4.05749,0.85658 l 0,20.42269 z" />
    <path
       inkscape:connector-curvature="0"
       id="path4211"
       style="font-style:normal;font-variant:normal;font-weight:500;font-stretch:normal;font-size:medium;line-height:125%;font-family:Ubuntu;-inkscape-font-specification:'Ubuntu Medium';letter-spacing:0px;word-spacing:0px;fill:#445500;fill-opacity:1;stroke:none;stroke-width:1px;stroke-linecap:butt;stroke-linejoin:miter;stroke-opacity:1"
       d="m 696.03627,670.91064 -5.45507,0 0,-23.57852 5.45507,0 0,23.57852 z m 0.58608,-30.47625 q 0,1.53283 -0.99183,2.43449 -0.99183,0.90167 -2.34432,0.90167 -1.39758,0 -2.38941,-0.90167 -0.99184,-0.90166 -0.99184,-2.43449 0,-1.57791 0.99184,-2.47958 0.99183,-0.90166 2.38941,-0.90166 1.35249,0 2.34432,0.90166 0.99183,0.90167 0.99183,2.47958 z" />
  </g>
</svg>
